{
  "title": "Transparent S03E02 720p HDTV HEVC 2CH x265",
  "uid": 15891735,
  "size": 218431646,
  "categoryP": "video",
  "categoryS": "hd___tv_shows",
  "magnet": "?xt=urn:btih:8c35c25f527c916f08074535a4b610c79f160d1d&amp;dn=Transparent+S03E02+720p+HDTV+HEVC+2CH+x265&amp;tr=udp%3A%2F%2Ftracker.leechers-paradise.org%3A6969&amp;tr=udp%3A%2F%2Fzer0day.ch%3A1337&amp;tr=udp%3A%2F%2Fopen.demonii.com%3A1337&amp;tr=udp%3A%2F%2Ftracker.coppersurfer.tk%3A6969&amp;tr=udp%3A%2F%2Fexodus.desync.com%3A6969",
  "seeders": 287,
  "leechers": 46,
  "uploader": "nayhtut",
  "files": 1,
  "time": 1474760459,
  "description": "Source: Transparent S03E02 1080p HDTV x264-ASCENDANCE (1.04 GB)\r\n\r\n\r\nComplete name: Transparent.S03E02.720p.HDTV.HEVC.2CH.x265.mkv\r\nFormat                                   : Matroska\r\nFormat version                           : Version 4 / Version 2\r\nFile size                                : 208 MiB\r\nDuration                                 : 28mn 47s\r\nOverall bit rate                         : 1 012 Kbps\r\nMovie name                               : transparent.s03e02.1080p.sphd\r\nWriting application                      : Lavf57.25.100\r\nWriting library                          : Lavf57.25.100\r\n\r\nVideo\r\n\r\nID                                       : 1\r\nFormat                                   : V_MPEGH/ISO/HEVC\r\nCodec ID                                 : V_MPEGH/ISO/HEVC\r\nDuration                                 : 28mn 47s\r\nBit rate                                 : 799 Kbps\r\nWidth                                    : 1 280 pixels\r\nHeight                                   : 640 pixels\r\nDisplay aspect ratio                     : 2.000\r\nFrame rate                               : 25.000 fps\r\nBits/(Pixel*Frame)                       : 0.039\r\nStream size                              : 165 MiB (79%)\r\nWriting library                          : Lavc57.48.101 libx265\r\nLanguage                                 : English\r\nDefault                                  : Yes\r\nForced                                   : No\r\nDURATION                                 : 00:28:47.451000000\r\n\r\nAudio\r\n\r\nID                                       : 2\r\nFormat                                   : AC-3\r\nFormat/Info                              : Audio Coding 3\r\nMode extension                           : CM (complete main)\r\nFormat settings, Endianness              : Big\r\nCodec ID                                 : A_AC3\r\nDuration                                 : 28mn 47s\r\nBit rate mode                            : Constant\r\nBit rate                                 : 192 Kbps\r\nChannel(s)                               : 2 channels\r\nChannel positions                        : Front: L R\r\nSampling rate                            : 48.0 KHz\r\nBit depth                                : 16 bits\r\nCompression mode                         : Lossy\r\nStream size                              : 39.5 MiB (19%)\r\nWriting library                          : Lavc57.24.102 ac3\r\nLanguage                                 : English\r\nDefault                                  : Yes\r\nForced                                   : No\r\nDURATION                                 : 00:28:47.455000000",
  "parsed": {
    "xt": "urn:btih:8c35c25f527c916f08074535a4b610c79f160d1d",
    "dn": "Transparent S03E02 720p HDTV HEVC 2CH x265",
    "tr": [
      "udp://exodus.desync.com:6969",
      "udp://open.demonii.com:1337",
      "udp://tracker.coppersurfer.tk:6969",
      "udp://tracker.leechers-paradise.org:6969",
      "udp://zer0day.ch:1337"
    ],
    "infoHash": "8c35c25f527c916f08074535a4b610c79f160d1d",
    "infoHashBuffer": {
      "type": "Buffer",
      "data": [
        140,
        53,
        194,
        95,
        82,
        124,
        145,
        111,
        8,
        7,
        69,
        53,
        164,
        182,
        16,
        199,
        159,
        22,
        13,
        29
      ]
    },
    "name": "Transparent S03E02 720p HDTV HEVC 2CH x265",
    "announce": [
      "udp://exodus.desync.com:6969",
      "udp://open.demonii.com:1337",
      "udp://tracker.coppersurfer.tk:6969",
      "udp://tracker.leechers-paradise.org:6969",
      "udp://zer0day.ch:1337"
    ],
    "urlList": []
  },
  "previous": 333,
  "peers": 160,
  "last_updated": "2016-12-25T07:20:33.368Z"
}